<?xml version="1.0" encoding="UTF-8" standalone="no"?>
<!-- Created with Inkscape (http://www.inkscape.org/) -->

<svg
   width="1920"
   height="1080"
   viewBox="0 0 507.99999 285.75"
   version="1.1"
   id="svg5"
   inkscape:version="1.2.1 (9c6d41e410, 2022-07-14)"
   sodipodi:docname="jumbotron.svg"
   xmlns:inkscape="http://www.inkscape.org/namespaces/inkscape"
   xmlns:sodipodi="http://sodipodi.sourceforge.net/DTD/sodipodi-0.dtd"
   xmlns="http://www.w3.org/2000/svg"
   xmlns:svg="http://www.w3.org/2000/svg"
   xmlns:rdf="http://www.w3.org/1999/02/22-rdf-syntax-ns#"
   xmlns:cc="http://creativecommons.org/ns#"
   xmlns:dc="http://purl.org/dc/elements/1.1/">
  <title
     id="title5510">Sinau Hiragana</title>
  <sodipodi:namedview
     id="namedview7"
     pagecolor="#ffffff"
     bordercolor="#000000"
     borderopacity="0.25"
     inkscape:showpageshadow="2"
     inkscape:pageopacity="0.0"
     inkscape:pagecheckerboard="0"
     inkscape:deskcolor="#d1d1d1"
     inkscape:document-units="mm"
     showgrid="false"
     inkscape:zoom="0.2973261"
     inkscape:cx="980.40502"
     inkscape:cy="479.27175"
     inkscape:window-width="1440"
     inkscape:window-height="830"
     inkscape:window-x="-6"
     inkscape:window-y="-6"
     inkscape:window-maximized="1"
     inkscape:current-layer="layer1" />
  <defs
     id="defs2" />
  <g
     inkscape:label="Layer 1"
     inkscape:groupmode="layer"
     id="layer1"
     transform="translate(23.911016,-13.84322)">
    <path
       id="rect2180"
       style="fill:#d6f7ff;fill-opacity:1;stroke-width:0.515548;stroke-linecap:round;stroke-linejoin:round;paint-order:stroke fill markers"
       d="m 21.394069,46.048022 c 17.861079,-9.60573 35.987097,-11.51712 50.98978,1.852511 C 142.68844,110.55242 238.99154,-47.617343 262.4313,46.048022 302.78399,207.29749 166.01831,26.323667 69.739597,111.29535 59.843418,120.02932 59.679618,137.12678 40.971339,146.70383 -3.2663945,169.34979 -62.966941,91.41757 21.394069,46.048022 Z"
       sodipodi:nodetypes="cccccc" />
    <circle
       style="fill:#d6f7ff;fill-opacity:1;stroke:none;stroke-width:0.640018;stroke-linecap:round;stroke-linejoin:round;stroke-dasharray:none;stroke-opacity:1;paint-order:stroke fill markers"
       id="path2888"
       cx="138.68388"
       cy="161.61942"
       r="44.299576" />
    <path
       style="fill:#d6f7ff;fill-opacity:1;stroke-width:1.17338;stroke-linecap:round;stroke-linejoin:round;paint-order:stroke fill markers"
       d="m 456.97373,99.088332 c -30.32977,-14.761834 -60.00171,-30.844815 -85.18196,3.379038 -13.90064,18.89311 -20.76103,38.61313 -55.17469,25.90601 -28.64342,-10.57648 -60.9222,-4.82397 -68.72637,31.53774 -6.29784,29.34334 -25.78757,21.1114 -38.3321,30.74499 -29.59893,22.73057 -7.48554,34.88199 6.38886,43.594 32.79664,20.59363 52.40141,18.83217 71.63028,6.7581 71.0512,-44.61401 71.02111,-9.76419 105.5095,-15.76888 39.77623,-6.92533 55.21221,-30.17742 74.53422,-65.32821 14.13814,-25.72024 14.80667,-48.43384 -10.64774,-60.822788 z"
       id="path9066"
       sodipodi:nodetypes="cccccccccc" />
    <path
       style="fill:#67d9f6;fill-opacity:1;stroke-width:1;stroke-linecap:round;stroke-linejoin:round;paint-order:stroke fill markers"
       d="m 450.44043,115.78874 c -27.88261,-11.66265 -55.16048,-24.369076 -78.30907,2.66962 -12.77907,14.92659 -19.08593,30.50646 -50.72293,20.46715 -26.33234,-8.35599 -56.00671,-3.81119 -63.1812,24.91652 -5.7897,23.18282 -21.39304,22.64472 -32.92541,30.25578 -27.21075,17.95839 -9.19544,21.59308 3.55951,28.47603 30.15044,16.27008 48.1734,14.87843 65.8508,5.33926 65.31845,-35.24747 65.29079,-7.71423 96.99649,-12.45826 36.56689,-5.47139 50.75742,-23.84179 68.52044,-51.61281 12.99741,-20.32038 13.612,-38.26534 -9.78863,-48.05329 z"
       id="path7612"
       sodipodi:nodetypes="cccccccccc" />
    <circle
       style="fill:#d6f7ff;fill-opacity:1;stroke:none;stroke-width:0.318606;stroke-linecap:round;stroke-linejoin:round;stroke-dasharray:none;stroke-opacity:1;paint-order:stroke fill markers"
       id="circle10179"
       cx="336.23633"
       cy="60.173561"
       r="22.052677" />
    <circle
       style="fill:#67d9f6;fill-opacity:1;stroke:none;stroke-width:0.215755;stroke-linecap:round;stroke-linejoin:round;stroke-dasharray:none;stroke-opacity:1;paint-order:stroke fill markers"
       id="circle10181"
       cx="448.36069"
       cy="257.72601"
       r="14.933669" />
  </g>
  <metadata
     id="metadata5508">
    <rdf:RDF>
      <cc:Work
         rdf:about="">
        <dc:title>Sinau Hiragana</dc:title>
        <dc:date>2022-10-23</dc:date>
        <dc:creator>
          <cc:Agent>
            <dc:title>Syaban Maulana</dc:title>
          </cc:Agent>
        </dc:creator>
        <dc:rights>
          <cc:Agent>
            <dc:title>Syaban Maulana</dc:title>
          </cc:Agent>
        </dc:rights>
        <dc:publisher>
          <cc:Agent>
            <dc:title>Syaban Maulana</dc:title>
          </cc:Agent>
        </dc:publisher>
        <dc:identifier>Syaban Maulana</dc:identifier>
        <dc:source>Syaban Maulana</dc:source>
        <dc:relation>Syaban Maulana</dc:relation>
        <dc:language>Indonesia;Japanese</dc:language>
        <dc:description>Syaban Maulana - Sinau Hiragana</dc:description>
        <dc:contributor>
          <cc:Agent>
            <dc:title>Syaban Maulana</dc:title>
          </cc:Agent>
        </dc:contributor>
      </cc:Work>
    </rdf:RDF>
  </metadata>
</svg>
